<?xml version="1.0" encoding="utf-8"?>
<!-- Generator: Adobe Illustrator 16.0.0, SVG Export Plug-In . SVG Version: 6.00 Build 0)  -->
<!DOCTYPE svg PUBLIC "-//W3C//DTD SVG 1.1//EN" "http://www.w3.org/Graphics/SVG/1.1/DTD/svg11.dtd">
<svg version="1.1" id="Ebene_1" xmlns="http://www.w3.org/2000/svg" xmlns:xlink="http://www.w3.org/1999/xlink" x="0px" y="0px"
	 width="271px" height="149.5px" viewBox="-60.5 0.5 271 149.5" enable-background="new -60.5 0.5 271 149.5" xml:space="preserve">
<g>
	<path fill="#FFFFFF" d="M-48.945,99.002h2.269v10.331h0.071c0.828-2.231,3.312-3.743,5.939-3.743c5.22,0,6.804,2.735,6.804,7.163
		v11.95h-2.269v-11.591c0-3.203-1.044-5.615-4.716-5.615c-3.6,0-5.759,2.736-5.83,6.371v10.835h-2.269V99.002z"/>
	<path fill="#FFFFFF" d="M-28.245,116.028c0.035,3.312,1.764,7.307,6.119,7.307c3.311,0,5.111-1.943,5.83-4.751h2.269
		c-0.972,4.211-3.42,6.659-8.099,6.659c-5.904,0-8.388-4.535-8.388-9.827c0-4.896,2.483-9.826,8.388-9.826
		c5.975,0,8.351,5.219,8.17,10.438H-28.245z M-16.224,114.12c-0.107-3.419-2.231-6.623-5.902-6.623c-3.708,0-5.76,3.24-6.119,6.623
		H-16.224z"/>
	<path fill="#FFFFFF" d="M-10.857,99.002h2.268v3.636h-2.268V99.002z M-10.857,106.129h2.268v18.574h-2.268V106.129z"/>
	<path fill="#FFFFFF" d="M-4.271,106.129h2.269v3.204h0.071c0.828-2.231,3.313-3.743,5.939-3.743c5.22,0,6.804,2.735,6.804,7.163
		v11.95H8.544v-11.591c0-3.203-1.043-5.615-4.715-5.615c-3.6,0-5.76,2.736-5.831,6.371v10.835h-2.269V106.129z"/>
	<path fill="#FFFFFF" d="M16.43,116.028c0.036,3.312,1.764,7.307,6.119,7.307c3.312,0,5.111-1.943,5.831-4.751h2.268
		c-0.972,4.211-3.42,6.659-8.099,6.659c-5.903,0-8.388-4.535-8.388-9.827c0-4.896,2.484-9.826,8.388-9.826
		c5.976,0,8.351,5.219,8.171,10.438H16.43z M28.452,114.12c-0.107-3.419-2.232-6.623-5.903-6.623c-3.708,0-5.759,3.24-6.119,6.623
		H28.452z"/>
	<path fill="#FFFFFF" d="M33.782,99.002h2.268v16.126l10.295-8.999h3.023l-7.92,6.876l8.459,11.698h-2.844l-7.342-10.114
		l-3.672,3.06v7.055h-2.268V99.002z"/>
	<path fill="#FFFFFF" d="M51.817,99.002h2.268v3.636h-2.268V99.002z M51.817,106.129h2.268v18.574h-2.268V106.129z"/>
	<path fill="#FFFFFF" d="M58.405,106.129h2.269v3.204h0.071c0.828-2.231,3.313-3.743,5.939-3.743c5.22,0,6.804,2.735,6.804,7.163
		v11.95H71.22v-11.591c0-3.203-1.043-5.615-4.715-5.615c-3.6,0-5.76,2.736-5.831,6.371v10.835h-2.269V106.129z"/>
	<path fill="#FFFFFF" d="M93.468,123.191c-0.036,5.543-2.159,8.927-8.243,8.927c-3.707,0-7.379-1.655-7.702-5.615h2.268
		c0.504,2.735,2.915,3.707,5.435,3.707c4.176,0,5.976-2.483,5.976-7.019v-2.52h-0.072c-1.044,2.268-3.239,3.815-5.903,3.815
		c-5.938,0-8.387-4.248-8.387-9.539c0-5.111,3.023-9.358,8.387-9.358c2.7,0,5.004,1.691,5.903,3.743H91.2v-3.204h2.268V123.191z
		 M91.2,115.2c0-3.636-1.691-7.703-5.976-7.703c-4.319,0-6.119,3.852-6.119,7.703c0,3.743,1.944,7.379,6.119,7.379
		C89.148,122.579,91.2,118.979,91.2,115.2z"/>
	<path fill="#FFFFFF" d="M97.718,106.094h4.823v2.52h0.072c1.332-1.908,3.275-3.023,5.687-3.023c2.34,0,4.428,0.863,5.436,3.096
		c1.08-1.62,3.023-3.096,5.615-3.096c3.96,0,6.804,1.836,6.804,6.659v12.454h-5.111v-10.547c0-2.483-0.216-4.535-3.132-4.535
		c-2.88,0-3.42,2.376-3.42,4.715v10.367h-5.111v-10.438c0-2.16,0.145-4.644-3.096-4.644c-1.008,0-3.455,0.647-3.455,4.283v10.799
		h-5.111V106.094z"/>
	<path fill="#FFFFFF" d="M134.4,116.641c0.144,3.239,1.728,4.715,4.571,4.715c2.052,0,3.708-1.26,4.031-2.412h4.5
		c-1.44,4.392-4.5,6.264-8.711,6.264c-5.867,0-9.503-4.031-9.503-9.791c0-5.579,3.852-9.826,9.503-9.826
		c6.335,0,9.395,5.327,9.035,11.051H134.4z M142.715,113.4c-0.468-2.592-1.583-3.959-4.067-3.959c-3.239,0-4.175,2.52-4.247,3.959
		H142.715z"/>
	<path fill="#FFFFFF" d="M164.136,122.327h-0.072c-1.188,2.016-3.275,2.88-5.651,2.88c-5.615,0-8.351-4.823-8.351-9.971
		c0-5.003,2.771-9.646,8.242-9.646c2.196,0,4.355,0.936,5.508,2.771h0.072v-9.359h5.111v25.701h-4.859V122.327z M159.672,109.441
		c-3.348,0-4.499,2.879-4.499,5.938c0,2.916,1.331,5.976,4.499,5.976c3.384,0,4.392-2.951,4.392-6.011
		C164.063,112.32,162.983,109.441,159.672,109.441z"/>
	<path fill="#FFFFFF" d="M178.104,103.214h-5.111v-4.212h5.111V103.214z M172.993,106.094h5.111v18.609h-5.111V106.094z"/>
	<path fill="#FFFFFF" d="M181.921,111.816c0.288-4.787,4.571-6.227,8.747-6.227c3.708,0,8.171,0.828,8.171,5.291v9.683
		c0,1.692,0.18,3.384,0.648,4.14h-5.184c-0.18-0.576-0.324-1.188-0.36-1.8c-1.619,1.691-3.995,2.304-6.263,2.304
		c-3.527,0-6.336-1.764-6.336-5.579c0-4.212,3.168-5.22,6.336-5.651c3.132-0.468,6.047-0.36,6.047-2.448
		c0-2.195-1.512-2.519-3.312-2.519c-1.943,0-3.203,0.791-3.384,2.807H181.921z M193.728,115.597
		c-0.863,0.756-2.663,0.791-4.247,1.079c-1.584,0.324-3.023,0.864-3.023,2.736c0,1.907,1.476,2.375,3.131,2.375
		c3.996,0,4.14-3.167,4.14-4.283V115.597z"/>
</g>
<path fill="#C51416" d="M25.849,51.898c0,11.75-2.432,23.14-6.91,33.792h15.89c3.956-10.867,6.021-22.248,6.021-33.792
	c0-11.447-2.035-22.745-5.934-33.54H19.238C23.532,28.897,25.849,40.188,25.849,51.898z"/>
<path fill="#FFD417" d="M55.849,51.898c0,11.75-2.432,23.14-6.91,33.792h15.89c3.956-10.867,6.021-22.248,6.021-33.792
	c0-11.447-2.035-22.745-5.934-33.54H49.238C53.532,28.897,55.849,40.188,55.849,51.898z"/>
<path fill="#009440" d="M85.848,51.898c0,11.75-2.431,23.14-6.909,33.792h15.89c3.956-10.867,6.02-22.248,6.02-33.792
	c0-11.447-2.034-22.745-5.934-33.54H79.238C83.532,28.897,85.848,40.188,85.848,51.898z"/>
<path fill="#0063AD" d="M115.848,51.898c0,11.75-2.431,23.14-6.908,33.792h15.889c3.956-10.867,6.02-22.248,6.02-33.792
	c0-11.447-2.034-22.745-5.934-33.54h-15.676C113.531,28.897,115.848,40.188,115.848,51.898z"/>
</svg>
